<?xml version="1.0" encoding="UTF-8"?>
<svg id="Layer_1" xmlns="http://www.w3.org/2000/svg" version="1.1" viewBox="0 0 800 800">
  <!-- Generator: Adobe Illustrator 30.2.1, SVG Export Plug-In . SVG Version: 2.1.1 Build 1)  -->
  <defs>
    <style>
      .st0 {
        fill: #ff2b85;
      }

      .st1 {
        fill: #d12477;
      }
    </style>
  </defs>
  <path class="st0" d="M557.6,463.52c-2.02.98-4.34.87-5.14,3.44,5.98,2.76,12.47,1.45,18.61,2.63,22.16,4.26,43.02,11.66,61.39,24.95,25.58,18.52,43.69,42.57,52.48,73.18,1.01,3.53.72,7.33.12,10.93-.56,3.43-2.99,4.79-6.53,4.76-11.5-.12-23,.03-34.5-.06-11.53-.09-22.82,1.98-34.18,3.45-40.73,5.28-77.74,22.1-115.25,37.35-9.98,4.06-20.19,6.31-31.02,6.28-48-.11-96-.35-144,.11-17.76.17-32.2-6.52-45.5-17.3-15.76-12.78-30.8-26.49-47.7-37.81-19.74-13.22-40.9-22.21-65.26-21.13-9.15.41-18.2,1.49-26.9,4.7-3.1,1.15-6.32,2.12-9.69,2.18-6.53.11-9.08-3.54-6.92-9.68,3.36-9.54,9.76-16.93,16.72-23.94,16.03-16.14,35.67-24.48,58.06-26.93.66-.07,1.32-.19,1.97-.31,2.28-.43,4.56-.86,6.8-1.29,1.38-2.88-.28-5.42-.74-7.88-.78-4.17.03-7.9,1.54-11.59,11.71-28.6,23.54-57.15,35.03-85.85,6.71-16.76,20.7-21.18,35.71-14.61,7.72,3.38,10.79,10.5,9.15,20.28-2.16,12.92-5.05,25.72-7.67,38.56-3.55,17.38-7.6,34.68-10.52,52.17-1.46,8.75,1.55,17.52,4.1,25.9,6.17,20.31,15.76,38.77,31.11,53.84,11.13,10.93,23.92,17.43,40.1,16.95,18.32-.54,36.66-.23,55-.13,23.93.14,41.25-11.52,54.96-30.08,16.58-22.45,11.68-58.38-7.93-77.94-7.2-7.18-14.92-13.75-22.57-20.41-3.56-3.1-3.44-4.3,1.05-6.05,10.38-4.06,21.33-6.22,32.07-9.07,19.26-5.12,38.56-10.14,57.99-14.54,7.08-1.6,13.5-4.36,19.83-7.51,5.78-2.88,11.85-3.02,17.95-2.78,15.63.61,31.26.5,46.88.19,8.86-.18,14.89,6.42,15.59,13.13.74,7.12,1,14.26-.14,21.39-.47,2.93-1.83,4.37-4.95,4.37-13-.04-25.9.65-38.63,3.76-2.74.67-5.3,1.87-8.44,2.4h-.03Z"/>
  <path class="st1" d="M409.02,234.06c6.01-7.39,11.56-14.58,21.54-16.45,13.6-2.55,27.11,3.84,33.08,16.37,5.47,11.47,7.84,23.94,11.33,36.04,3.89,13.51,7.51,27.1,11.28,40.65,6.19,22.21,12.53,44.38,18.57,66.64,3.85,14.2.32,25.28-10.35,32.18-4.4,2.84-9.58,4.35-14.71,5.6-12.74,3.11-25.49,6.17-38.25,9.22-15.46,3.7-30.94,7.35-46.4,11.04-1.94.46-3.83,1.11-5.75,1.62-11.1,2.92-11.25,2.9-11.94,14.32-1.15,19.1-1.63,38.24-3.29,57.29-.96,11.07-.24,22.22-2.63,33.26-2.37,10.98-12.55,20.5-23.75,20.42-12.83-.09-23.25-8.82-25.21-20.46-1.6-9.53.5-18.89.52-28.34.02-7.78,1.19-15.55,1.59-23.33,1.1-21.58,1.9-43.18,3.15-64.75.43-7.44,3.35-13.52,8.33-19.87,6.72-8.56,15.39-10.82,24.41-12.48,12.4-2.29,24.5-5.31,36.46-9.25,6.44-2.12,13.12-3.57,19.76-5.05,5.91-1.32,6.79-2.54,5-8.16-3.87-12.15-7.57-24.36-11.7-36.43-1.14-3.34-.43-5.64,1.46-8.23,7.86-10.74,15.64-21.54,23.38-32.36,1.62-2.26,3.67-4.51,3.37-7.53-.36-3.58-2.29-6.31-5.84-7.36-3.51-1.03-6.63-.05-8.86,2.95-10.91,14.69-21.8,29.4-32.68,44.12-2.17,2.94-4.35,5.89-6.38,8.93-5.13,7.67-12.71,11.43-21.34,13.54-22.75,5.55-45.46,11.26-68.28,16.54-8.8,2.03-17.12,1.04-23.79-6.35-8.91-9.88-5.72-26.43,6.4-32.05,11.26-5.21,23.59-6.47,35.42-9.56,12.35-3.23,24.83-5.96,37.08-9.61,6.69-1.99,10.27-7.49,13.57-12.62,6.59-10.24,14.62-19.34,21.69-29.18,7.57-10.54,15.66-20.69,23.75-31.29v-.02Z"/>
  <path class="st0" d="M596.35,275.27c-.95-5.13-1.75-9.87-2.72-14.58-.53-2.57.14-4.28,2.84-4.75,15.7-2.73,31.39-5.46,47.1-8.08,3.22-.54,4.44,1.74,4.9,4.43,1.29,7.51,2.5,15.04,3.75,22.57,4.32,25.83,8.67,51.65,12.94,77.48.84,5.07,1.42,10.18,2.03,15.28,1.11,9.32-3.65,14.23-14.99,15.66-24.53,3.09-48.86,7.48-73.23,11.59-12.21,2.06-24.32,5.11-36.78,5.44-7.96.21-12.1-3.09-13.38-11.03-2.88-17.83-5.38-35.73-8.2-53.57-2.28-14.41-4.82-28.78-7.24-43.18-.9-5.39-1.93-10.76-2.62-16.18-.71-5.59.48-7.07,6.39-7.53,5.8-.45,11.56-1.57,17.18-2.57,8.95-1.6,18.04-2.74,26.87-5.01,4.63-1.19,6.71-.06,7.3,4.98.59,5.06,1.25,10.17,2.82,15.12,1.86,5.86,4.04,7.48,10.15,6.59,1.8-.26,3.59-.64,5.37-1.02,8.04-1.72,9.12-3.01,9.49-11.65h.03Z"/>
  <path class="st0" d="M382.78,106.74c18.79,4.96,33.58,14.75,42.15,32.14,6.97,14.16,9.01,29.19,4.2,44.5-2.46,7.84-7.9,13.95-14.69,18.43-9.03,5.95-18.37,11.45-27.7,16.94-10.21,6.02-17.2,1.99-19.32-9.65-1.8-9.85-2.38-20.09-7.67-29.2-5.25-9.04-15.04-12.21-24.76-11.26-8.47.83-16.56,3.45-24.84,5.13-6.25,1.26-7.41.41-7.48-5.95-.28-26.1,16.53-49.2,42.74-59.06,10.63-4,21.54-3.43,32.5-2.62,1.49.11,2.96.37,4.87.6h0Z"/>
  <path class="st1" d="M163.9,689.33c-21.46-11.53-34.89-28.98-40.51-52.2-3.85-15.91-2.6-31.58,4.21-46.66,1.32-2.91,3.31-4.77,6.36-5.86,10.89-3.89,21.96-6.34,33.64-6.03,4.42.12,8.53,1.21,12.73,2.18,1.37.32,2.58.89,2.73,2.49.14,1.44-1.01,2-2.04,2.54-4.36,2.27-8,5.46-11.05,9.23-14.45,17.93-9.24,49.93,16.85,58.54,23.36,7.72,45.98-8.46,48.86-31.7.7-5.66,1.42-6.16,5.77-2.66,8.8,7.08,17.7,14.05,25.73,22.04,2.68,2.67,2.79,5.64,1.39,8.69-11.76,25.6-30.77,41.94-59.2,46.36-15.8,2.45-30.71-.43-45.48-6.96h0Z"/>
  <path class="st1" d="M522.06,671.9c-4.68-5.69-8.58-11.49-11.98-17.61-3.22-5.8-2.59-7.83,3.4-10.36,8.57-3.62,17.3-6.87,25.87-10.49,3.93-1.66,5.77.24,7.59,3.27,4.59,7.61,10.61,13.87,19.21,16.66,26.91,8.74,49.3-12.15,49.73-32.77.06-2.81.68-5.61.78-8.42.09-2.61,1.4-3.48,3.79-3.48,10.33.02,20.65.03,30.98-.02,2.71-.01,3.71,1.15,3.94,3.87,2.97,34.93-17.53,68.07-50.59,79.93-12.14,4.35-24.88,5.53-38.19,3.42-17.84-2.83-32.18-10.87-44.53-24h0Z"/>
  <path class="st0" d="M251.38,344.72c.96,4.46,1.57,8.58,3.29,12.41.87,1.95.63,3.41-1.79,4.23-6.76,2.29-13.41,4.96-20.21,7.12-7.36,2.34-10.98-.34-11-7.86-.05-19.16-.05-38.32,0-57.47.02-7.56,5.04-10.72,11.49-7.09,9.72,5.47,20.02,9.7,30.04,14.52,5.02,2.41,5.17,3.34.78,7.05-8.24,6.97-12.04,16.05-12.6,27.09Z"/>
  <path class="st0" d="M505.38,234.97c1.81-3.94,5.05-5.42,8.51-6.03,14.18-2.48,28.4-4.74,42.61-7.08,3.03-.5,5.24.25,5.84,3.7.91,5.22,1.93,10.41,2.87,15.62.53,2.92-1.12,4.41-3.69,4.91-7.47,1.44-14.96,2.77-22.44,4.13-8.63,1.56-17.27,3.01-25.87,4.7-4.23.83-6.27-.55-6.61-4.91-.38-4.9-3.01-9.57-1.23-15.04h0Z"/>
  <path class="st0" d="M631.03,209.66c9.64-.09,12.62,2.68,13.3,11.94.71,9.74.82,10.25-8.93,12.29-13.6,2.85-27.38,4.84-41.09,7.19-2.22.38-3.42-.75-4.04-2.77-1.82-5.91-2.76-11.94-2.59-18.14.06-2.22,1.08-3.19,3.25-3.59,13.19-2.42,26.32-5.23,40.1-6.92h0Z"/>
</svg>